<svg width="160" height="161" viewBox="0 0 160 161" fill="none" xmlns="http://www.w3.org/2000/svg">
<path d="M122.415 74.3086V76.9072" stroke="#3C4043" stroke-miterlimit="10" stroke-linecap="round" stroke-linejoin="round"/>
<path d="M134.783 85.2219C138.311 82.3551 142.984 80.865 147.484 80.5551C152.919 80.1796 152.794 84.5008 150.523 88.1842C149.093 90.5087 147.061 92.5172 144.861 94.1086C141.321 96.6775 136.964 98.1616 132.571 98.0543" stroke="#3C4043" stroke-miterlimit="10" stroke-linecap="round" stroke-linejoin="round"/>
<path d="M137.22 98.4601C142.573 89.4423 143.204 75.0186 143.204 75.0186H110C110 75.0186 111.341 105.541 126.599 105.541C131.373 105.541 134.783 102.561 137.22 98.4601Z" fill="white" stroke="#3C4043" stroke-miterlimit="10" stroke-linecap="round" stroke-linejoin="round"/>
<path d="M120.448 78.7608V74.3145C120.448 73.7721 120.889 73.3311 121.432 73.3311C121.974 73.3311 122.415 73.7721 122.415 74.3145V74.3085" stroke="#3C4043" stroke-miterlimit="10" stroke-linecap="round" stroke-linejoin="round"/>
<path d="M116.699 78.7607H124.197V88.3984H116.699V78.7607Z" fill="white" stroke="#3C4043" stroke-miterlimit="10" stroke-linecap="round" stroke-linejoin="round"/>
<path d="M110.006 75.0186C110.006 75.0186 110.399 83.9231 113.159 92.1124C115.513 99.0859 119.584 105.541 126.605 105.541" stroke="#3C4043" stroke-miterlimit="10" stroke-linecap="round" stroke-linejoin="round"/>
<path d="M121.88 68.1804C121.88 68.1804 119 67.1104 119 63.8204C119 58.7704 126.57 57.7404 126.57 51.4204C126.57 46.1204 121.88 42.4004 121.88 42.4004" stroke="#3C4043" stroke-miterlimit="10" stroke-linecap="round" stroke-linejoin="round"/>
<path d="M127.69 71.0706C127.69 71.0706 125.65 67.2606 128.71 64.2106C131.9 61.0206 134.96 60.2006 134.96 56.0806C134.96 53.7606 132.72 51.6406 132.72 51.6406" stroke="#3C4043" stroke-miterlimit="10" stroke-linecap="round" stroke-linejoin="round"/>
<g clip-path="url(#clip0_952_173967)">
<path d="M131.491 128.635V123.302L87.2603 123.302V128.635H131.491Z" fill="#E8EAED" stroke="#E8EAED" stroke-miterlimit="10"/>
<path d="M87.2623 123.265V128.598L78.0267 125.914C77.9823 125.896 77.9823 125.834 78.0267 125.816L87.2623 123.265Z" fill="white" stroke="#3C4043" stroke-miterlimit="10" stroke-linecap="round" stroke-linejoin="round"/>
<path d="M82.0446 124.767V127.095L78.0001 125.922C77.9824 125.913 77.9824 125.887 78.0001 125.878L82.0446 124.767Z" fill="#3C4043" stroke="#3C4043" stroke-miterlimit="10" stroke-linecap="round" stroke-linejoin="round"/>
<path d="M87.2625 128.634H137.689" stroke="#3C4043" stroke-miterlimit="10" stroke-linecap="round" stroke-linejoin="round"/>
<path d="M38.1957 32.0557H30.4357L27.769 105.851H31.7957" fill="white"/>
<path d="M38.1957 32.0557H30.4357L27.769 105.851H31.7957" stroke="#3C4043" stroke-miterlimit="10" stroke-linecap="round" stroke-linejoin="round"/>
<path d="M40.2668 105.851H31.7957L34.2134 32.3047" fill="white"/>
<path d="M40.2668 105.851H31.7957L34.2134 32.3047" stroke="#3C4043" stroke-miterlimit="10" stroke-linecap="round" stroke-linejoin="round"/>
<path d="M38.1956 32.0557H100.916C100.916 32.0557 102.489 108.66 104.844 114.953H40.1689L38.1956 32.0557Z" fill="white" stroke="#3C4043" stroke-miterlimit="10" stroke-linecap="round" stroke-linejoin="round"/>
<path d="M22.6667 105.852H35.0579" stroke="#3C4043" stroke-miterlimit="10" stroke-linecap="round" stroke-linejoin="round"/>
<path d="M104 105.5H187" stroke="#3C4043" stroke-miterlimit="10" stroke-linecap="round" stroke-linejoin="round"/>
<path d="M100.987 32.1445H38.4001V37.9134H100.987V32.1445Z" fill="#3C4043" stroke="#3C4043" stroke-miterlimit="10" stroke-linecap="round" stroke-linejoin="round"/>
<path d="M38.4 40.3486L36.6489 105.851H39.3778L38.4 40.3486Z" fill="#3C4043" stroke="#3C4043" stroke-miterlimit="10" stroke-linecap="round" stroke-linejoin="round"/>
<path d="M57.4578 70.0381H48.9067V78.5892H57.4578V70.0381Z" fill="#E8EAED" stroke="#E8EAED" stroke-miterlimit="10"/>
<path d="M63.0579 77.7002H92.2401" stroke="#3C4043" stroke-miterlimit="10" stroke-linecap="round" stroke-linejoin="round"/>
<path d="M58.3468 91.9668H49.7957V100.518H58.3468V91.9668Z" fill="#E8EAED" stroke="#E8EAED" stroke-miterlimit="10"/>
<path d="M63.9468 99.6289H93.129" stroke="#3C4043" stroke-miterlimit="10" stroke-linecap="round" stroke-linejoin="round"/>
<path d="M56.5689 48.1182H48.0178V56.6693H56.5689V48.1182Z" fill="#E8EAED" stroke="#E8EAED" stroke-miterlimit="10"/>
<path d="M50.3733 51.407L52.4355 54.0648L58.6311 45.5137" stroke="#3C4043" stroke-miterlimit="10" stroke-linecap="round" stroke-linejoin="round"/>
<path d="M62.1689 55.7803H91.3512" stroke="#3C4043" stroke-miterlimit="10" stroke-linecap="round" stroke-linejoin="round"/>
</g>
<defs>
<clipPath id="clip0_952_173967">
<rect width="160" height="160" fill="white" transform="translate(0 0.5)"/>
</clipPath>
</defs>
</svg>
