<?xml version="1.0" standalone="no"?>
<!DOCTYPE svg PUBLIC "-//W3C//DTD SVG 20010904//EN"
 "http://www.w3.org/TR/2001/REC-SVG-20010904/DTD/svg10.dtd">
<svg version="1.0" xmlns="http://www.w3.org/2000/svg"
 width="24.000000pt" height="24.000000pt" viewBox="0 0 24.000000 24.000000"
 preserveAspectRatio="xMidYMid meet">

<g transform="translate(0.000000,24.000000) scale(0.100000,-0.100000)"
fill="#000000" stroke="none">
<path d="M182 213 c-11 -11 -11 -16 0 -27 11 -11 16 -11 26 1 11 11 11 16 0
27 -11 11 -16 11 -26 -1z"/>
<path d="M76 172 c-9 -18 -27 -34 -41 -38 -32 -8 -32 -20 0 -28 14 -4 32 -20
41 -38 l16 -32 14 32 c8 19 22 34 38 38 14 3 26 10 26 14 0 4 -12 11 -26 14
-16 4 -30 19 -38 38 l-14 32 -16 -32z m34 -32 l20 -20 -20 -20 c-20 -20 -20
-20 -40 0 -19 19 -19 21 -2 39 22 24 19 24 42 1z"/>
<path d="M173 59 c-9 -9 -8 -15 3 -26 12 -13 16 -13 28 0 11 11 12 17 3 26 -6
6 -14 11 -17 11 -3 0 -11 -5 -17 -11z"/>
</g>
</svg>
