<svg width="156" height="206" viewBox="0 0 156 206" fill="none" xmlns="http://www.w3.org/2000/svg">
<g clip-path="url(#clip0_3444_114090)">
<path d="M44.4309 61.7627H7.29688V185.103H44.4309V61.7627Z" fill="#E8EAED"/>
<path d="M108.019 58.522H75.2109V185.103H108.019V58.522Z" fill="#E8EAED"/>
<path d="M133.789 7.96594H12.0462C6.49785 7.96594 2 12.4704 2 18.027V183.837C2 189.394 6.49785 193.898 12.0462 193.898H133.789C139.337 193.898 143.835 189.394 143.835 183.837V18.027C143.835 12.4704 139.337 7.96594 133.789 7.96594Z" fill="#E8EAED"/>
<path d="M109.622 50.9707L108.032 185.092H78.3831L73.9375 50.9707H109.622Z" fill="#F8F9FA"/>
<path d="M44.1258 50.9707V185.092H10.1517L7.29688 50.9707H44.1258Z" fill="#F8F9FA"/>
<path d="M43.4697 50.9707H73.9353L78.381 185.092H41.2578L43.4697 50.9707Z" fill="white"/>
<path d="M109.295 50.9707H138.366V185.092H108.031L109.295 50.9707Z" fill="white"/>
<path d="M5.39062 78.6987L138.367 79.9645" stroke="#E8EAED" stroke-width="0.44" stroke-linecap="round" stroke-linejoin="round"/>
<path d="M5.39062 65.2222L138.367 66.1824" stroke="#E8EAED" stroke-width="0.44" stroke-linecap="round" stroke-linejoin="round"/>
<path d="M5.39062 96.5292L138.367 94.936" stroke="#E8EAED" stroke-width="0.44" stroke-linecap="round" stroke-linejoin="round"/>
<path d="M5.39062 108.947L138.367 109.908" stroke="#E8EAED" stroke-width="0.44" stroke-linecap="round" stroke-linejoin="round"/>
<path d="M5.39062 125.828L138.367 124.868" stroke="#E8EAED" stroke-width="0.44" stroke-linecap="round" stroke-linejoin="round"/>
<path d="M5.39062 140.221H138.367" stroke="#E8EAED" stroke-width="0.44" stroke-linecap="round" stroke-linejoin="round"/>
<path d="M5.39062 155.182L138.367 155.826" stroke="#E8EAED" stroke-width="0.44" stroke-linecap="round" stroke-linejoin="round"/>
<path d="M5.39062 172.379L138.367 170.153" stroke="#E8EAED" stroke-width="0.44" stroke-linecap="round" stroke-linejoin="round"/>
<path d="M138.125 50.9707L138.049 185.092H10.1504L7.53528 50.9707H109.294H138.125Z" stroke="#34A853" stroke-width="0.44" stroke-linecap="round" stroke-linejoin="round"/>
<path d="M44.4297 50.9707H73.9364H44.4297Z" stroke="#34A853" stroke-width="0.44" stroke-linecap="round" stroke-linejoin="round"/>
<path d="M16.0867 146.685V170.397C16.0569 170.776 16.1049 171.157 16.2277 171.517C16.3505 171.876 16.5455 172.207 16.8007 172.488C17.0559 172.769 17.366 172.995 17.7117 173.151C18.0574 173.308 18.4314 173.392 18.8107 173.398H20.9246V179.542L26.2419 173.398H45.4191C46.2138 173.398 46.976 173.082 47.5379 172.519C48.0999 171.957 48.4156 171.193 48.4156 170.397L49.4398 146.685C49.4398 145.892 49.1253 145.132 48.5654 144.571C48.0055 144.01 47.2461 143.695 46.4543 143.695H19.0723C18.2805 143.695 17.5211 144.01 16.9612 144.571C16.4013 145.132 16.0867 145.892 16.0867 146.685Z" fill="#4285F4"/>
<path d="M26.9732 158.71C26.1839 157.442 25.9072 155.92 26.1996 154.454C26.4194 153.684 26.9198 153.025 27.6018 152.606C28.2838 152.188 29.0977 152.041 29.8825 152.195C30.6551 152.439 31.3591 152.864 31.9367 153.432C32.5143 154.001 32.9492 154.699 33.2058 155.469C33.5981 154.255 34.3602 153.194 35.3851 152.435C35.884 152.106 36.4893 151.98 37.0781 152.081C37.6669 152.182 38.1952 152.504 38.5558 152.981C38.8329 153.44 39.0101 153.952 39.0758 154.484C39.1415 155.016 39.0943 155.557 38.9372 156.069C38.6754 156.937 38.246 157.746 37.6733 158.448C36.8452 159.539 36.2349 160.248 35.3306 161.209C34.6114 161.962 32.9552 163.751 31.8983 163.686C30.0459 163.642 27.8667 160.379 26.9732 158.71Z" fill="#D2E3FC"/>
<path d="M143.868 10.072V18.2234H2.00001V10.072C1.99711 7.4055 3.05128 4.84695 4.93092 2.95841C6.81056 1.06987 9.36191 0.00583579 12.0244 5.3283e-05H133.789C135.112 -0.00425849 136.423 0.253159 137.646 0.757525C138.869 1.26189 139.981 2.00326 140.918 2.93909C141.854 3.87493 142.597 4.98682 143.103 6.21088C143.609 7.43494 143.869 8.74706 143.868 10.072Z" fill="#9AA0A6"/>
<path d="M22.4103 10.7923C23.4093 10.7923 24.2191 9.98127 24.2191 8.98085C24.2191 7.98043 23.4093 7.16943 22.4103 7.16943C21.4114 7.16943 20.6016 7.98043 20.6016 8.98085C20.6016 9.98127 21.4114 10.7923 22.4103 10.7923Z" stroke="#E8EAED" stroke-width="0.44" stroke-linecap="round" stroke-linejoin="round"/>
<path d="M16.8283 10.7923C17.8272 10.7923 18.637 9.98127 18.637 8.98085C18.637 7.98043 17.8272 7.16943 16.8283 7.16943C15.8293 7.16943 15.0195 7.98043 15.0195 8.98085C15.0195 9.98127 15.8293 10.7923 16.8283 10.7923Z" stroke="#E8EAED" stroke-width="0.44" stroke-linecap="round" stroke-linejoin="round"/>
<path d="M11.2384 10.7923C12.2374 10.7923 13.0472 9.98127 13.0472 8.98085C13.0472 7.98043 12.2374 7.16943 11.2384 7.16943C10.2395 7.16943 9.42969 7.98043 9.42969 8.98085C9.42969 9.98127 10.2395 10.7923 11.2384 10.7923Z" fill="#E8EAED" stroke="#E8EAED" stroke-width="0.44" stroke-linecap="round" stroke-linejoin="round"/>
<path d="M130.943 7.20215H36.6807C35.6877 7.20215 34.8828 8.00582 34.8828 8.9972C34.8828 9.98858 35.6877 10.7923 36.6807 10.7923H130.943C131.936 10.7923 132.741 9.98858 132.741 8.9972C132.741 8.00582 131.936 7.20215 130.943 7.20215Z" stroke="#E8EAED" stroke-width="0.44" stroke-linecap="round" stroke-linejoin="round"/>
<path d="M138.421 37.4289V50.9709H7.29688V37.4289C7.29688 37.095 7.36253 36.7644 7.49012 36.4559C7.61771 36.1474 7.80472 35.8672 8.04046 35.6311C8.27621 35.395 8.55609 35.2076 8.86411 35.0799C9.17213 34.9521 9.50228 34.8863 9.83568 34.8863H135.828C136.166 34.8791 136.502 34.9395 136.816 35.064C137.13 35.1885 137.417 35.3747 137.658 35.6115C137.9 35.8483 138.092 36.1311 138.223 36.4432C138.354 36.7552 138.421 37.0904 138.421 37.4289Z" fill="#34A853"/>
<path d="M73.1617 44.7617C72.6212 44.7201 72.1043 44.5227 71.6732 44.1936C71.2421 43.8645 70.9152 43.4176 70.7319 42.9066C70.7165 42.8674 70.7095 42.8253 70.7112 42.7832C70.7129 42.741 70.7233 42.6997 70.7417 42.6617C70.7601 42.6238 70.7862 42.5901 70.8182 42.5628C70.8503 42.5354 70.8877 42.5151 70.928 42.5029C70.9672 42.4875 71.0092 42.4805 71.0513 42.4822C71.0934 42.4839 71.1346 42.4942 71.1725 42.5127C71.2104 42.5311 71.244 42.5573 71.2713 42.5894C71.2986 42.6215 71.319 42.6589 71.3311 42.6993C71.4739 43.0924 71.7264 43.4361 72.0587 43.6896C72.391 43.943 72.7889 44.0954 73.2053 44.1288C73.2468 44.1316 73.2874 44.1425 73.3247 44.161C73.362 44.1796 73.3952 44.2053 73.4226 44.2367C73.4499 44.2681 73.4708 44.3047 73.484 44.3442C73.4972 44.3837 73.5025 44.4255 73.4995 44.4671C73.4967 44.5087 73.4858 44.5493 73.4673 44.5866C73.4488 44.624 73.4231 44.6573 73.3917 44.6847C73.3603 44.712 73.3239 44.733 73.2844 44.7462C73.2449 44.7594 73.2032 44.7647 73.1617 44.7617Z" fill="#99DBB1"/>
<path d="M54.1942 48.6574C53.9588 48.6607 53.7241 48.6313 53.4968 48.5701C53.4551 48.5626 53.4154 48.5463 53.3803 48.5226C53.3452 48.4988 53.3155 48.468 53.2929 48.4321C53.2703 48.3961 53.2555 48.3559 53.2493 48.3139C53.2432 48.2719 53.2458 48.2291 53.2571 48.1882C53.2777 48.1073 53.3293 48.0379 53.4007 47.995C53.4721 47.9521 53.5576 47.9392 53.6385 47.959C54.206 48.075 54.7956 48.0074 55.3224 47.7662C55.8492 47.525 56.2858 47.1225 56.5695 46.6168C56.5879 46.5793 56.6137 46.5461 56.6453 46.519C56.677 46.4919 56.7139 46.4716 56.7537 46.4594C56.7935 46.4471 56.8354 46.4431 56.8768 46.4476C56.9182 46.4522 56.9583 46.4652 56.9945 46.4859C57.0317 46.5044 57.065 46.5302 57.0923 46.5617C57.1196 46.5931 57.1404 46.6297 57.1536 46.6692C57.1668 46.7088 57.172 46.7505 57.169 46.7921C57.166 46.8337 57.1548 46.8742 57.1361 46.9114C56.8452 47.4383 56.4192 47.8779 55.902 48.1848C55.3849 48.4917 54.7953 48.6549 54.1942 48.6574Z" fill="#99DBB1"/>
<path d="M69.9365 50.0215C69.7756 50.3128 69.686 50.6382 69.675 50.9709H69.043C69.0504 50.5262 69.1704 50.0907 69.3917 49.705C69.411 49.6685 69.4375 49.6363 69.4696 49.6103C69.5017 49.5844 69.5387 49.5651 69.5785 49.5539C69.6182 49.5427 69.6598 49.5397 69.7007 49.5451C69.7417 49.5504 69.7811 49.564 69.8166 49.585C69.8535 49.6054 69.8859 49.633 69.9119 49.6661C69.938 49.6993 69.9571 49.7373 69.9683 49.778C69.9794 49.8186 69.9824 49.8612 69.9769 49.903C69.9715 49.9448 69.9577 49.9851 69.9365 50.0215Z" fill="#99DBB1"/>
<path d="M83.3171 47.0641C83.2756 47.0677 83.2338 47.063 83.1941 47.0504C83.1544 47.0378 83.1175 47.0175 83.0857 46.9907C83.0538 46.9638 83.0275 46.9309 83.0083 46.8939C82.9891 46.8569 82.9774 46.8165 82.9738 46.7749C82.9703 46.7333 82.9749 46.6915 82.9875 46.6518C83 46.612 83.0203 46.575 83.0471 46.5431C83.0739 46.5112 83.1068 46.4849 83.1437 46.4657C83.1807 46.4465 83.2211 46.4348 83.2626 46.4312C83.4049 46.4018 83.5399 46.3441 83.6597 46.2617C83.7795 46.1792 83.8815 46.0736 83.9599 45.951C84.0409 45.8306 84.097 45.6953 84.1251 45.5529C84.1532 45.4105 84.1526 45.2639 84.1234 45.1217C84.1032 45.0392 84.1165 44.9521 84.1604 44.8795C84.2043 44.8068 84.2753 44.7546 84.3577 44.7343C84.44 44.7141 84.527 44.7274 84.5996 44.7714C84.6721 44.8154 84.7242 44.8865 84.7445 44.969C84.7946 45.1963 84.7983 45.4315 84.7552 45.6603C84.7121 45.8891 84.6232 46.1068 84.4939 46.3002C84.3727 46.4932 84.2137 46.6595 84.0263 46.7889C83.839 46.9183 83.6274 47.0082 83.4042 47.0532L83.3171 47.0641Z" fill="#99DBB1"/>
<path d="M86.5979 38.8147C85.6954 38.814 84.817 38.5233 84.0918 37.9854C84.0586 37.9598 84.0309 37.9279 84.0101 37.8914C83.9894 37.855 83.9761 37.8148 83.9711 37.7731C83.966 37.7315 83.9692 37.6893 83.9806 37.6489C83.992 37.6086 84.0112 37.5709 84.0373 37.538C84.061 37.5043 84.0913 37.4758 84.1264 37.4542C84.1614 37.4325 84.2005 37.4182 84.2412 37.4121C84.282 37.406 84.3235 37.4081 84.3634 37.4185C84.4032 37.4289 84.4405 37.4473 84.4731 37.4726C84.8956 37.7873 85.3824 38.0043 85.8987 38.1081C86.4149 38.2118 86.9477 38.1998 87.4587 38.0727C87.4992 38.0605 87.5417 38.0566 87.5838 38.0612C87.6258 38.0658 87.6665 38.0788 87.7034 38.0994C87.7404 38.12 87.7728 38.1479 87.7988 38.1813C87.8248 38.2147 87.8438 38.253 87.8547 38.2939C87.8657 38.3348 87.8683 38.3775 87.8625 38.4194C87.8566 38.4614 87.8425 38.5018 87.8208 38.5381C87.7991 38.5745 87.7703 38.6061 87.7362 38.6311C87.7021 38.6561 87.6633 38.6741 87.6221 38.6838C87.2878 38.7716 86.9435 38.8156 86.5979 38.8147Z" fill="#99DBB1"/>
<path d="M71.8544 34.8862C71.4988 35.3258 71.0593 35.6902 70.5617 35.9581C70.0642 36.226 69.5183 36.3921 68.9561 36.4467C68.8754 36.4448 68.7981 36.414 68.7382 36.3599C68.6782 36.3059 68.6396 36.2322 68.6292 36.1521C68.6258 36.0676 68.6541 35.9849 68.7085 35.9202C68.763 35.8556 68.8396 35.8137 68.9234 35.8029C69.6986 35.7339 70.4298 35.4119 71.0045 34.8862H71.8544Z" fill="#99DBB1"/>
<path d="M59.7368 40.9206C59.6663 40.9191 59.5979 40.8963 59.5406 40.8551C59.0757 40.4869 58.7717 39.9524 58.6924 39.3642C58.6132 38.776 58.7649 38.1799 59.1157 37.7015C59.1749 37.6422 59.2553 37.6089 59.339 37.6089C59.4228 37.6089 59.5032 37.6422 59.5624 37.7015C59.627 37.7549 59.6686 37.831 59.6788 37.9143C59.6889 37.9975 59.6668 38.0815 59.6169 38.1489C59.4917 38.3157 59.4011 38.5059 59.3506 38.7083C59.3 38.9107 59.2906 39.1212 59.3227 39.3274C59.3461 39.5398 59.411 39.7455 59.5139 39.9327C59.6167 40.12 59.7554 40.2851 59.922 40.4186C59.956 40.4434 59.9847 40.4748 60.0064 40.5108C60.0281 40.5469 60.0425 40.5868 60.0486 40.6285C60.0547 40.6702 60.0524 40.7127 60.0419 40.7535C60.0313 40.7942 60.0128 40.8325 59.9874 40.866C59.9142 40.9165 59.8242 40.9361 59.7368 40.9206Z" fill="#99DBB1"/>
<path d="M45.8018 39.4586C45.6931 39.4694 45.5837 39.4694 45.475 39.4586C45.4338 39.4546 45.3938 39.4423 45.3575 39.4223C45.3212 39.4024 45.2894 39.3752 45.2639 39.3425C45.2384 39.3099 45.2198 39.2724 45.2093 39.2323C45.1987 39.1922 45.1965 39.1504 45.2026 39.1094C45.2135 39.0265 45.2557 38.9508 45.3205 38.898C45.3854 38.8453 45.4679 38.8194 45.5512 38.8257C46.0495 38.8837 46.5526 38.7677 46.9754 38.4973C47.3982 38.2269 47.7149 37.8187 47.8721 37.3416C47.8834 37.3014 47.9025 37.2638 47.9284 37.231C47.9543 37.1983 47.9864 37.1709 48.0228 37.1507C48.0593 37.1304 48.0994 37.1175 48.1409 37.1128C48.1823 37.1081 48.2243 37.1118 48.2644 37.1234C48.3048 37.1358 48.3423 37.1561 48.3747 37.1833C48.4071 37.2104 48.4337 37.2438 48.453 37.2815C48.4723 37.3191 48.4839 37.3602 48.4871 37.4024C48.4902 37.4446 48.4849 37.4871 48.4714 37.5272C48.2829 38.0876 47.9243 38.575 47.4456 38.9213C46.967 39.2676 46.3923 39.4554 45.8018 39.4586Z" fill="#99DBB1"/>
<path d="M43.2753 48.1881C43.2051 48.1878 43.1369 48.164 43.0817 48.1205C43.0264 48.077 42.9872 48.0164 42.9702 47.9481C42.9071 47.6616 42.9058 47.3651 42.9662 47.0781C43.0267 46.791 43.1475 46.5203 43.3208 46.2837C43.494 46.0472 43.7157 45.8504 43.9709 45.7065C44.2261 45.5626 44.509 45.4749 44.8008 45.4492C44.8759 45.4631 44.9438 45.5029 44.9927 45.5617C45.0415 45.6205 45.0683 45.6946 45.0683 45.7711C45.0683 45.8476 45.0415 45.9217 44.9927 45.9805C44.9438 46.0393 44.8759 46.0791 44.8008 46.093C44.6038 46.1079 44.4126 46.1665 44.2411 46.2646C44.0696 46.3628 43.9221 46.498 43.8093 46.6605C43.6922 46.8139 43.6092 46.9907 43.566 47.1789C43.5227 47.3671 43.5202 47.5624 43.5586 47.7517C43.5701 47.7925 43.5732 47.8353 43.5679 47.8773C43.5625 47.9194 43.5487 47.96 43.5274 47.9966C43.506 48.0333 43.4775 48.0653 43.4436 48.0907C43.4097 48.1161 43.371 48.1344 43.3298 48.1445L43.2753 48.1881Z" fill="#99DBB1"/>
<path d="M35.0897 48.4607C35.0441 48.4616 34.9989 48.4523 34.9575 48.4334C34.916 48.4146 34.8793 48.3866 34.85 48.3517C34.5434 48.0176 34.1446 47.7823 33.7043 47.6754C33.2639 47.5686 32.8018 47.5951 32.3765 47.7515C32.3372 47.7665 32.2953 47.7737 32.2532 47.7725C32.2111 47.7713 32.1696 47.7619 32.1312 47.7446C32.0927 47.7274 32.058 47.7028 32.0291 47.6721C32.0001 47.6415 31.9775 47.6054 31.9625 47.566C31.9475 47.5266 31.9404 47.4846 31.9415 47.4424C31.9427 47.4002 31.9522 47.3588 31.9694 47.3202C31.9866 47.2817 32.0111 47.247 32.0418 47.218C32.0724 47.189 32.1084 47.1664 32.1477 47.1513C32.6963 46.953 33.2911 46.9217 33.8574 47.0616C34.4236 47.2014 34.9358 47.506 35.3294 47.937C35.3861 47.9976 35.4176 48.0776 35.4176 48.1607C35.4176 48.2438 35.3861 48.3238 35.3294 48.3844C35.298 48.4148 35.2601 48.4374 35.2185 48.4507C35.1769 48.4639 35.1328 48.4674 35.0897 48.4607Z" fill="#99DBB1"/>
<path d="M30.026 41.7502C29.8591 41.761 29.6916 41.761 29.5247 41.7502C29.483 41.7436 29.4429 41.7287 29.407 41.7064C29.3711 41.684 29.34 41.6546 29.3157 41.62C29.2913 41.5854 29.274 41.5463 29.265 41.5049C29.256 41.4636 29.2554 41.4208 29.2632 41.3791C29.2792 41.296 29.3267 41.2222 29.3958 41.1734C29.4648 41.1246 29.5501 41.1044 29.6337 41.1173C30.1036 41.1932 30.5853 41.1376 31.0257 40.9565C31.466 40.7755 31.8478 40.4762 32.1289 40.0915C32.1781 40.022 32.2527 39.975 32.3365 39.9606C32.4203 39.9463 32.5063 39.9659 32.5757 40.0151C32.645 40.0643 32.692 40.1391 32.7063 40.223C32.7206 40.3069 32.7011 40.3931 32.6519 40.4626C32.3441 40.8666 31.9465 41.1933 31.4907 41.4168C31.0349 41.6403 30.5334 41.7544 30.026 41.7502Z" fill="#99DBB1"/>
<path d="M39.0348 37.2869C39.0071 37.3416 38.9652 37.3878 38.9133 37.4205C38.8615 37.4531 38.8018 37.4711 38.7406 37.4724C38.6975 37.4822 38.6528 37.4822 38.6098 37.4724C38.3113 37.3143 38.056 37.0855 37.8661 36.8059C37.6762 36.5263 37.5574 36.2044 37.5202 35.8683C37.4905 35.545 37.5391 35.2194 37.6618 34.9189H38.3701C38.2628 35.082 38.1921 35.2663 38.1627 35.4593C38.1333 35.6523 38.1459 35.8494 38.1998 36.037C38.2536 36.2246 38.3473 36.3984 38.4745 36.5463C38.6017 36.6942 38.7594 36.8129 38.9367 36.894C38.9932 36.9402 39.0332 37.0033 39.0509 37.0741C39.0686 37.1449 39.0629 37.2196 39.0348 37.2869Z" fill="#99DBB1"/>
<path d="M24.7928 50.9709H24.1064C23.8133 50.3887 23.317 49.9343 22.7117 49.6941C22.6719 49.6796 22.6355 49.6573 22.6045 49.6284C22.5736 49.5995 22.5487 49.5648 22.5314 49.5261C22.5142 49.4874 22.5048 49.4456 22.504 49.4033C22.5031 49.3609 22.5108 49.3188 22.5265 49.2795C22.5398 49.2401 22.5609 49.2038 22.5887 49.1729C22.6165 49.142 22.6503 49.1171 22.6881 49.0997C22.7258 49.0823 22.7667 49.0728 22.8083 49.0719C22.8498 49.0709 22.8911 49.0784 22.9296 49.094C23.3535 49.2597 23.7382 49.5123 24.0591 49.8355C24.3799 50.1587 24.6298 50.5454 24.7928 50.9709Z" fill="#99DBB1"/>
<path d="M23.9232 37.7454C23.9006 37.8047 23.8601 37.8554 23.8074 37.8906C23.7546 37.9258 23.6923 37.9437 23.629 37.9418H23.5091C23.168 37.799 22.8596 37.5879 22.6029 37.3214C22.3462 37.055 22.1466 36.7388 22.0164 36.3922C21.824 35.9228 21.7564 35.4116 21.8202 34.9082H22.4631C22.3974 35.3281 22.4464 35.7579 22.6047 36.1522C22.7043 36.4194 22.8571 36.6636 23.0538 36.87C23.2504 37.0763 23.4869 37.2405 23.7488 37.3525C23.822 37.384 23.8805 37.4419 23.9128 37.5148C23.9452 37.5876 23.9489 37.67 23.9232 37.7454Z" fill="#99DBB1"/>
<path d="M90.9654 49.6503C90.9684 49.6922 90.9627 49.7343 90.9488 49.7739C90.9348 49.8135 90.9127 49.8499 90.8841 49.8806C90.8555 49.9113 90.8208 49.9358 90.7823 49.9525C90.7438 49.9692 90.7023 49.9778 90.6603 49.9777C90.448 49.9954 90.2416 50.0569 90.0541 50.1583C89.8666 50.2597 89.702 50.3989 89.5707 50.567C89.4709 50.6868 89.3867 50.8187 89.3201 50.9598H88.6445C88.7397 50.6664 88.8874 50.3927 89.0804 50.1523C89.2725 49.9143 89.5124 49.7193 89.7846 49.5802C90.0568 49.4411 90.3552 49.3609 90.6603 49.3447C90.7404 49.3474 90.8164 49.3805 90.873 49.4372C90.9297 49.494 90.9627 49.5701 90.9654 49.6503Z" fill="#99DBB1"/>
<path d="M102.637 38.3019C101.806 38.3066 100.996 38.0425 100.327 37.5489C100.26 37.5007 100.214 37.428 100.2 37.3463C100.186 37.2647 100.204 37.1808 100.251 37.1125C100.301 37.0444 100.376 36.9984 100.459 36.9842C100.542 36.9699 100.628 36.9886 100.698 37.0361C101.2 37.3953 101.792 37.6079 102.407 37.6503C103.023 37.6927 103.638 37.5632 104.184 37.2761C104.257 37.2522 104.336 37.2548 104.408 37.2833C104.479 37.3118 104.538 37.3644 104.574 37.4321C104.61 37.4997 104.622 37.5779 104.606 37.6532C104.591 37.7284 104.55 37.7958 104.49 37.8436C103.919 38.1467 103.283 38.3041 102.637 38.3019Z" fill="#99DBB1"/>
<path d="M106.822 49.4104C106.825 49.4523 106.819 49.4943 106.805 49.534C106.791 49.5736 106.769 49.6099 106.741 49.6406C106.712 49.6713 106.677 49.6958 106.639 49.7125C106.6 49.7292 106.559 49.7378 106.517 49.7377C106.124 49.7596 105.743 49.8851 105.414 50.1016C105.085 50.3182 104.819 50.6181 104.643 50.9708H103.945C104.142 50.4446 104.489 49.9876 104.942 49.6561C105.395 49.3245 105.935 49.1329 106.495 49.1048C106.537 49.1018 106.579 49.1074 106.618 49.1214C106.658 49.1354 106.694 49.1575 106.725 49.1862C106.756 49.2149 106.78 49.2496 106.797 49.2881C106.813 49.3267 106.822 49.3683 106.822 49.4104Z" fill="#99DBB1"/>
<path d="M117.65 36.8177C117.59 36.8712 117.513 36.902 117.432 36.905C117.387 36.9046 117.343 36.8935 117.304 36.8727C117.264 36.8518 117.229 36.8217 117.204 36.785C116.983 36.5259 116.821 36.222 116.729 35.8943C116.637 35.5665 116.616 35.2226 116.67 34.8862H117.323C117.266 35.1446 117.268 35.413 117.33 35.6703C117.393 35.9277 117.513 36.1672 117.683 36.3703C117.735 36.4351 117.761 36.5174 117.755 36.6005C117.749 36.6837 117.712 36.7613 117.65 36.8177Z" fill="#99DBB1"/>
<path d="M134.695 50.9707H133.91C134.201 50.6369 134.412 50.2418 134.529 49.8148C134.646 49.3879 134.665 48.94 134.586 48.5045C134.578 48.4637 134.578 48.4217 134.586 48.3809C134.595 48.3402 134.611 48.3014 134.634 48.267C134.657 48.2325 134.687 48.203 134.722 48.1801C134.757 48.1572 134.796 48.1413 134.836 48.1335C134.878 48.1239 134.921 48.1229 134.963 48.1305C135.005 48.1381 135.045 48.1541 135.08 48.1775C135.116 48.201 135.147 48.2314 135.17 48.267C135.194 48.3025 135.21 48.3425 135.218 48.3845C135.381 49.2818 135.194 50.2077 134.695 50.9707Z" fill="#99DBB1"/>
<path d="M120.431 47.3262C120.377 47.3277 120.324 47.3154 120.276 47.2906C120.229 47.2658 120.188 47.2292 120.159 47.1843C119.848 46.6814 119.707 46.0919 119.756 45.5025C119.805 44.9132 120.041 44.3551 120.431 43.9107C120.458 43.8791 120.491 43.8533 120.528 43.8346C120.566 43.8159 120.606 43.8047 120.648 43.8016C120.689 43.7986 120.731 43.8038 120.77 43.8169C120.81 43.83 120.846 43.8507 120.878 43.878C120.909 43.9052 120.935 43.9383 120.954 43.9755C120.972 44.0127 120.983 44.0533 120.987 44.0949C120.99 44.1364 120.984 44.1781 120.971 44.2177C120.958 44.2572 120.938 44.2938 120.91 44.3253C120.62 44.6619 120.444 45.0818 120.407 45.5248C120.37 45.9678 120.474 46.4111 120.703 46.7915C120.745 46.8631 120.759 46.9481 120.74 47.0291C120.722 47.1102 120.674 47.1813 120.605 47.228C120.558 47.2771 120.497 47.3112 120.431 47.3262Z" fill="#99DBB1"/>
<path d="M138.418 43.2341V43.8888C138.072 43.8352 137.74 43.7107 137.444 43.523C137.147 43.3352 136.893 43.0882 136.696 42.7976C136.674 42.7625 136.658 42.7232 136.65 42.682C136.642 42.6408 136.643 42.5985 136.651 42.5574C136.66 42.5164 136.677 42.4775 136.7 42.4429C136.724 42.4083 136.754 42.3786 136.789 42.3557C136.824 42.3328 136.863 42.3169 136.904 42.3092C136.946 42.3015 136.988 42.3019 137.029 42.3105C137.07 42.3191 137.109 42.3358 137.143 42.3594C137.178 42.3831 137.207 42.4134 137.23 42.4485C137.364 42.6535 137.539 42.8289 137.743 42.964C137.947 43.0991 138.177 43.191 138.418 43.2341Z" fill="#99DBB1"/>
<path d="M133.776 37.5269C133.301 37.5272 132.832 37.4238 132.401 37.2241C131.97 37.0243 131.588 36.733 131.281 36.3702C131.25 36.3416 131.226 36.307 131.209 36.2685C131.192 36.23 131.184 36.1885 131.184 36.1465C131.184 36.1045 131.192 36.063 131.209 36.0245C131.226 35.986 131.25 35.9514 131.281 35.9228C131.341 35.866 131.421 35.8345 131.504 35.8345C131.587 35.8345 131.667 35.866 131.728 35.9228C132.045 36.2988 132.462 36.5773 132.93 36.726C133.399 36.8746 133.9 36.8875 134.375 36.763C134.415 36.7514 134.457 36.7478 134.499 36.7525C134.54 36.7572 134.58 36.7701 134.617 36.7904C134.653 36.8106 134.685 36.838 134.711 36.8707C134.737 36.9035 134.756 36.9411 134.768 36.9813C134.781 37.0214 134.786 37.0638 134.782 37.1059C134.778 37.1479 134.765 37.1886 134.745 37.2255C134.724 37.2625 134.696 37.2947 134.663 37.3203C134.629 37.3459 134.591 37.3642 134.55 37.3741C134.3 37.4601 134.04 37.5115 133.776 37.5269Z" fill="#99DBB1"/>
<path d="M8.60441 43.3214C8.36602 43.9797 7.90289 44.5324 7.29688 44.8818V44.0961C7.61785 43.8394 7.86273 43.4999 8.00512 43.114C8.01859 43.0745 8.03974 43.0381 8.06733 43.0068C8.09492 42.9755 8.12842 42.9501 8.16589 42.9318C8.20336 42.9136 8.24407 42.9029 8.28567 42.9004C8.32727 42.898 8.36893 42.9039 8.40827 42.9176C8.4477 42.9311 8.48408 42.9523 8.51531 42.9799C8.54654 43.0075 8.572 43.0411 8.59023 43.0786C8.60846 43.1161 8.6191 43.1569 8.62153 43.1986C8.62397 43.2402 8.61814 43.282 8.60441 43.3214Z" fill="#99DBB1"/>
<path d="M130.347 40.5171H110.439C109.109 40.5171 108.031 41.5968 108.031 42.9287C108.031 44.2606 109.109 45.3403 110.439 45.3403H130.347C131.676 45.3403 132.755 44.2606 132.755 42.9287C132.755 41.5968 131.676 40.5171 130.347 40.5171Z" fill="white" stroke="white" stroke-width="0.58" stroke-linecap="round" stroke-linejoin="round"/>
<path d="M102.474 45.3403C103.804 45.3403 104.882 44.2606 104.882 42.9287C104.882 41.5968 103.804 40.5171 102.474 40.5171C101.145 40.5171 100.066 41.5968 100.066 42.9287C100.066 44.2606 101.145 45.3403 102.474 45.3403Z" stroke="white" stroke-width="0.58" stroke-linecap="round" stroke-linejoin="round"/>
<path d="M18.0048 38.2036H11.8703C11.5212 38.2036 11.2383 38.487 11.2383 38.8365V46.8679C11.2383 47.2174 11.5212 47.5008 11.8703 47.5008H18.0048C18.3538 47.5008 18.6368 47.2174 18.6368 46.8679V38.8365C18.6368 38.487 18.3538 38.2036 18.0048 38.2036Z" stroke="white" stroke-width="0.44" stroke-linecap="round" stroke-linejoin="round"/>
<path d="M32.7599 23.0903H8.625V25.862H32.7599V23.0903Z" fill="white"/>
<path d="M107.431 27.4443H8.625V31.7001H107.431V27.4443Z" fill="#F1F3F4"/>
<path d="M2 18.0269H143.835" stroke="white" stroke-width="0.44" stroke-miterlimit="10"/>
<path d="M147.138 151.559H82.4042C80.023 151.559 77.7393 150.612 76.0555 148.926C74.3717 147.239 73.4258 144.952 73.4258 142.568V90.2438C73.4258 87.858 74.3713 85.5698 76.0548 83.8818C77.7383 82.1938 80.022 81.2441 82.4042 81.2412H149.012C150.195 81.2384 151.367 81.469 152.461 81.92C153.554 82.371 154.549 83.0335 155.387 83.8696C156.225 84.7057 156.89 85.699 157.344 86.7928C157.798 87.8865 158.033 89.0592 158.034 90.2438L156.127 142.568C156.125 144.953 155.176 147.24 153.491 148.926C151.805 150.612 149.52 151.559 147.138 151.559Z" fill="#9AA0A6"/>
<path d="M146.145 150.282H81.4542C80.2742 150.284 79.1055 150.052 78.0149 149.601C76.9244 149.15 75.9333 148.488 75.0984 147.653C74.2635 146.817 73.6012 145.826 73.1493 144.734C72.6974 143.642 72.4648 142.472 72.4648 141.291V88.934C72.4648 87.7523 72.6974 86.5821 73.1493 85.4905C73.6012 84.3989 74.2635 83.4072 75.0984 82.5721C75.9333 81.737 76.9244 81.0749 78.0149 80.6237C79.1055 80.1724 80.2742 79.941 81.4542 79.9424H148.051C149.231 79.941 150.4 80.1724 151.491 80.6237C152.581 81.0749 153.572 81.737 154.407 82.5721C155.242 83.4072 155.904 84.3989 156.356 85.4905C156.808 86.5821 157.041 87.7523 157.041 88.934L155.134 141.312C155.128 143.695 154.178 145.978 152.493 147.66C150.807 149.342 148.524 150.285 146.145 150.282Z" fill="#F1F3F4"/>
<path d="M147.735 89.1853C148.733 89.1853 149.543 88.3743 149.543 87.3739C149.543 86.3735 148.733 85.5625 147.735 85.5625C146.736 85.5625 145.926 86.3735 145.926 87.3739C145.926 88.3743 146.736 89.1853 147.735 89.1853Z" stroke="#9AA0A6" stroke-width="0.44" stroke-linecap="round" stroke-linejoin="round"/>
<path d="M147.735 94.7722C148.733 94.7722 149.543 93.9613 149.543 92.9608C149.543 91.9604 148.733 91.1494 147.735 91.1494C146.736 91.1494 145.926 91.9604 145.926 92.9608C145.926 93.9613 146.736 94.7722 147.735 94.7722Z" stroke="#9AA0A6" stroke-width="0.44" stroke-linecap="round" stroke-linejoin="round"/>
<path d="M147.735 100.37C148.733 100.37 149.543 99.5594 149.543 98.559C149.543 97.5586 148.733 96.7476 147.735 96.7476C146.736 96.7476 145.926 97.5586 145.926 98.559C145.926 99.5594 146.736 100.37 147.735 100.37Z" stroke="#9AA0A6" stroke-width="0.44" stroke-linecap="round" stroke-linejoin="round"/>
<path d="M90.1815 92.6989C90.1815 93.7111 89.8818 94.7005 89.3203 95.5421C88.7588 96.3838 87.9606 97.0398 87.0268 97.4271C86.0931 97.8145 85.0656 97.9158 84.0743 97.7183C83.083 97.5208 82.1724 97.0335 81.4577 96.3177C80.743 95.602 80.2563 94.6901 80.0591 93.6973C79.862 92.7045 79.9631 91.6755 80.3499 90.7404C80.7367 89.8052 81.3917 89.0059 82.2321 88.4436C83.0725 87.8812 84.0605 87.5811 85.0712 87.5811C86.4266 87.5811 87.7264 88.1202 88.6847 89.08C89.6431 90.0398 90.1815 91.3415 90.1815 92.6989Z" fill="#FBBC04"/>
<path d="M132.785 87.5811H99.2361C96.4198 87.5811 94.1367 89.8675 94.1367 92.688V92.6989C94.1367 95.5193 96.4198 97.8058 99.2361 97.8058H132.785C135.602 97.8058 137.885 95.5193 137.885 92.6989V92.688C137.885 89.8675 135.602 87.5811 132.785 87.5811Z" stroke="#5F6368" stroke-width="0.44" stroke-linecap="round" stroke-linejoin="round"/>
<path d="M150.22 111.577H79.9727V124.89H150.22V111.577Z" stroke="#4285F4" stroke-width="0.44" stroke-linecap="round" stroke-linejoin="round"/>
<path d="M130.378 117.458H84.418V119.881H130.378V117.458Z" fill="#4285F4"/>
<path d="M101.494 134.885H79.8867V138.377H101.494V134.885Z" fill="#9AA0A6"/>
<path d="M140 117.186L142.964 120.154L145.927 117.186H140Z" fill="#4285F4" stroke="#4285F4" stroke-width="0.44" stroke-linecap="round" stroke-linejoin="round"/>
</g>
<defs>
<clipPath id="clip0_3444_114090">
<rect width="156" height="206" fill="white"/>
</clipPath>
</defs>
</svg>
